<?xml version="1.0" standalone="no"?>
<!DOCTYPE svg PUBLIC "-//W3C//DTD SVG 20010904//EN"
 "http://www.w3.org/TR/2001/REC-SVG-20010904/DTD/svg10.dtd">
<svg version="1.0" xmlns="http://www.w3.org/2000/svg"
 width="2133.000000pt" height="2133.000000pt" viewBox="0 0 2133.000000 2133.000000"
 preserveAspectRatio="xMidYMid meet">
<metadata>
Created by potrace 1.11, written by Peter Selinger 2001-2013
</metadata>
<g transform="translate(0.000000,2133.000000) scale(0.100000,-0.100000)"
fill="#000000" stroke="none">
<path d="M3260 16118 c0 -2866 -2 -5213 -4 -5216 -3 -2 -24 11 -48 30 -24 19
-54 42 -68 51 -14 9 -59 39 -100 66 -41 28 -79 54 -85 59 -8 6 -113 70 -351
213 l-32 19 -80 -162 c-87 -178 -198 -376 -288 -514 -32 -49 -61 -91 -64 -94
-3 -3 -20 -27 -39 -55 -103 -149 -281 -339 -392 -418 -36 -25 -100 -63 -142
-83 l-76 -36 6 -41 c3 -23 7 -44 9 -46 2 -2 27 -5 56 -6 65 -4 170 -15 177
-20 3 -1 22 -6 41 -9 107 -16 281 -88 394 -163 98 -64 224 -193 271 -276 20
-37 34 -71 31 -75 -4 -4 -24 -7 -44 -8 -210 -11 -455 -98 -576 -205 -60 -55
-123 -133 -145 -184 -10 -23 -169 -292 -254 -429 -152 -247 -381 -583 -541
-796 -60 -80 -56 -75 -161 -204 l-97 -119 6 -116 c3 -64 13 -156 21 -206 34
-191 146 -465 270 -655 26 -41 51 -77 54 -80 3 -3 17 -21 31 -40 30 -43 30
-44 82 -105 262 -305 519 -519 968 -807 56 -36 147 -89 255 -148 33 -18 76
-42 95 -53 88 -50 455 -229 545 -267 55 -23 114 -47 130 -55 17 -7 86 -37 155
-65 69 -29 163 -70 208 -91 46 -22 86 -39 89 -39 8 0 368 -181 377 -190 8 -8
-52 -83 -149 -186 -28 -30 -127 -141 -285 -319 -73 -82 -155 -172 -181 -200
-27 -27 -61 -72 -76 -100 -25 -45 -28 -59 -28 -150 0 -71 5 -113 16 -140 59
-142 118 -268 176 -380 21 -39 145 -238 153 -245 3 -3 28 -36 55 -75 27 -38
57 -79 66 -90 233 -280 383 -430 649 -651 133 -110 570 -415 634 -443 5 -2 44
-25 88 -52 44 -27 81 -49 83 -49 2 0 41 -22 87 -48 538 -309 1458 -675 2243
-891 161 -44 369 -99 396 -105 13 -3 51 -12 84 -20 273 -65 514 -117 686 -150
115 -21 368 -67 429 -76 41 -7 84 -14 94 -16 11 -2 56 -8 100 -14 125 -17 147
-20 206 -30 30 -5 87 -12 125 -16 39 -3 72 -8 75 -9 26 -14 296 -20 975 -20
696 0 865 3 952 19 18 3 78 11 178 22 28 3 109 14 180 25 72 11 146 22 165 25
49 7 420 72 446 78 12 2 37 7 55 10 19 3 67 12 106 20 40 9 85 18 101 21 15 2
88 18 161 35 73 16 143 32 155 34 11 2 41 9 66 16 25 7 56 14 70 16 14 3 33 7
42 10 9 3 25 7 36 9 54 10 480 125 652 176 155 46 650 209 665 219 6 3 30 12
55 20 25 7 49 17 54 22 6 4 16 8 24 8 8 0 28 6 45 14 18 8 84 35 147 59 132
51 379 157 525 225 127 59 478 238 527 268 21 13 40 24 43 24 2 0 34 18 70 40
36 22 68 40 71 40 2 0 17 8 32 19 15 10 61 39 102 64 41 26 80 50 85 54 6 4
44 30 85 57 68 45 288 203 300 216 3 3 23 18 45 35 22 16 51 39 65 51 14 12
61 52 105 89 127 107 391 379 496 510 185 232 329 467 429 700 62 142 80 217
75 302 -5 76 -32 137 -93 202 -24 25 -55 60 -70 76 -15 17 -67 75 -116 130
-49 55 -92 102 -95 105 -3 3 -55 61 -116 130 -60 69 -126 143 -146 165 -20 22
-50 55 -67 74 l-31 35 42 24 c105 60 435 214 667 312 69 28 143 60 165 70 22
10 74 32 115 49 195 81 577 279 810 419 194 117 476 314 590 411 14 12 50 43
80 68 59 50 273 262 331 328 168 191 325 450 398 658 64 181 90 318 95 500 l3
88 -59 72 c-33 40 -68 81 -77 92 -105 126 -297 392 -460 640 -62 94 -126 189
-142 213 -16 23 -29 45 -29 48 0 3 -8 18 -19 32 -30 42 -247 405 -254 426 -16
41 -97 153 -139 190 -80 73 -190 131 -328 174 -45 14 -250 49 -298 51 l-22 1
21 43 c77 152 235 294 431 387 79 37 213 81 288 94 19 3 46 8 60 10 14 3 58 7
99 10 40 2 77 8 81 13 4 4 10 25 13 46 5 30 2 39 -11 44 -166 56 -371 229
-553 468 -61 80 -196 283 -246 370 -23 39 -51 88 -64 110 -13 22 -64 122 -114
222 l-92 182 -166 -99 c-156 -93 -466 -297 -495 -327 -7 -7 -16 -13 -20 -13
-4 0 -6 2347 -6 5215 l1 5215 -7378 0 -7379 0 0 -5212z m17 -7190 c0 -7 3 -58
7 -113 7 -95 9 -120 21 -225 13 -106 16 -129 20 -151 3 -13 7 -41 10 -64 15
-108 62 -341 85 -425 66 -237 130 -430 182 -550 111 -254 213 -443 346 -645
74 -112 224 -320 242 -335 3 -3 24 -27 45 -55 22 -27 42 -52 45 -55 3 -3 28
-32 55 -65 28 -33 59 -67 70 -77 11 -10 15 -17 8 -18 -15 0 -445 212 -628 309
-71 39 -150 81 -175 94 -25 13 -64 35 -87 50 -24 15 -45 27 -47 27 -3 0 -51
28 -108 61 -558 334 -988 686 -1247 1022 -12 15 -10 18 20 29 216 75 487 303
741 623 62 78 211 288 252 356 15 24 45 71 66 104 22 33 43 67 46 75 7 15 25
40 29 40 1 0 2 -6 2 -12z m14753 -25 c26 -48 27 -50 144 -228 296 -448 587
-750 854 -883 54 -27 108 -51 121 -55 23 -6 22 -7 -24 -64 -90 -111 -227 -253
-343 -355 -103 -91 -330 -272 -402 -321 -226 -153 -578 -377 -594 -377 -2 0
-41 -22 -87 -48 -153 -88 -631 -333 -784 -402 -27 -12 -54 -25 -60 -28 -9 -5
31 45 46 58 15 13 170 200 228 275 17 22 35 45 40 51 48 58 224 325 293 444
126 219 250 502 326 745 38 121 94 331 106 400 3 17 8 41 11 55 7 31 24 124
30 165 3 17 7 39 9 50 2 11 9 63 15 115 7 52 14 109 16 125 3 17 8 68 11 115
4 47 8 96 10 110 1 14 2 40 3 58 1 17 3 32 6 32 2 0 14 -17 25 -37z m-11890
-3915 c41 -19 102 -47 135 -62 33 -16 85 -39 115 -53 47 -22 99 -45 185 -82
11 -5 43 -19 70 -31 90 -41 187 -82 195 -85 3 -1 21 -8 40 -17 59 -26 335
-141 510 -213 91 -37 185 -76 210 -87 25 -11 62 -27 83 -34 20 -7 54 -21 75
-30 56 -25 71 -30 157 -65 44 -17 94 -37 110 -44 44 -19 352 -145 405 -165 46
-18 441 -181 495 -205 17 -7 80 -34 140 -60 61 -26 124 -53 140 -60 17 -8 107
-47 200 -88 488 -214 917 -435 1148 -593 43 -30 81 -54 83 -54 3 0 49 29 102
64 261 172 658 375 1197 611 121 53 234 102 252 110 17 8 34 15 37 15 3 0 25
9 49 19 102 47 158 71 163 71 2 0 21 7 42 17 20 9 39 17 42 18 5 2 17 7 115
48 33 14 146 60 250 102 381 156 583 238 710 290 195 79 425 174 472 196 23
10 44 19 47 19 5 0 404 169 461 195 17 7 86 38 155 68 141 62 235 105 330 149
72 34 146 68 172 80 13 5 7 -14 -22 -72 -22 -43 -40 -81 -40 -85 0 -3 -9 -25
-19 -48 -18 -40 -48 -142 -57 -197 -3 -14 -7 -31 -9 -39 -10 -27 -6 -169 6
-230 12 -65 60 -149 102 -183 270 -215 345 -277 455 -384 l64 -62 -98 -82
c-261 -215 -696 -511 -981 -665 -27 -14 -77 -42 -113 -62 -110 -61 -449 -228
-570 -281 -189 -83 -359 -152 -373 -152 -7 0 -17 -4 -23 -8 -36 -32 -747 -260
-924 -297 -13 -3 -66 -16 -120 -29 -57 -15 -260 -59 -303 -66 -29 -5 -92 -16
-142 -25 -49 -9 -101 -18 -115 -20 -45 -8 -304 -44 -355 -50 -28 -3 -63 -7
-80 -10 -16 -2 -66 -7 -110 -11 -44 -4 -93 -8 -110 -9 -210 -21 -957 -28
-1160 -12 -305 24 -417 35 -460 43 -11 2 -44 6 -75 9 -31 3 -67 7 -80 10 -14
3 -41 7 -60 10 -67 8 -296 46 -365 60 -38 8 -81 16 -95 19 -137 24 -604 145
-779 201 -58 19 -110 35 -116 36 -5 1 -46 15 -90 31 -44 16 -105 37 -136 48
-333 115 -848 348 -1188 539 -79 45 -146 81 -147 81 -2 0 -22 12 -46 28 -24
15 -52 32 -63 39 -227 135 -581 384 -764 537 -47 39 -89 74 -95 78 -19 13 161
179 407 377 175 141 206 192 212 357 6 148 -35 312 -121 488 -24 50 -44 91
-44 93 0 2 8 0 18 -6 9 -5 51 -24 92 -43z"/>
</g>
</svg>
